<svg xmlns="http://www.w3.org/2000/svg" version="1.1" xmlns:xlink="http://www.w3.org/1999/xlink" xmlns:svgjs="http://svgjs.dev/svgjs" width="100%" height="100%" viewBox="0 0 1000 600"><rect width="1000" height="600" x="0" y="0" fill="#ffffff"/><g><rect width="333.3333333333333" height="333.3333333333333" rx="13.333333333333334" ry="13.333333333333334" y="359.29782390635916" fill="#8aaae5" transform="matrix(0.3708367108403352,0,0,0.37083671084033526,0,104.9530696988272)" x="337.07559204101557"/><path d="M551.3699849209618 566.8099780735L550.9441941970022 600.9644768596729L448.4502842153433 467.1749486669971Q445.37850827820745 463.22117765880256 442.5500413261914 462.0350463563442Q439.6911607510353 460.81850143074587 434.2167085858428 460.3927107067865L434.2167085858428 460.3927107067865Q433.57802249990374 457.99003447872974 433.334713514784 455.3440492655534Q433.12181815280434 452.728477675517 433.12181815280434 450.96448753339945L433.12181815280434 450.96448753339945Q435.31159901888134 451.17738289537914 438.0488251014776 451.29903738793894Q440.7860511840738 451.4206918804988 443.73617262864974 451.5119327499187Q446.71670769636563 451.6335872424785 449.33227928640207 451.6335872424785L449.33227928640207 451.6335872424785Q453.4989456565763 451.6335872424785 457.33106217221103 451.4206918804988Q461.1631786878458 451.17738289537914 463.9916456398619 450.96448753339945L463.9916456398619 450.96448753339945L551.3699849209618 566.8099780735ZM433.12181815280434 600.3257907737338L433.12181815280434 600.3257907737338Q433.12181815280434 597.4669101985778 433.334713514784 595.155474839941Q433.57802249990374 592.8744531044442 434.2167085858428 590.897567600347L434.2167085858428 590.897567600347Q440.1473650981347 590.897567600347 443.43203639725016 588.0386870251907Q446.71670769636563 585.2102200731747 448.02449349138385 578.0934322584244Q449.33227928640207 570.9766444436743 449.33227928640207 558.7199543182712L449.33227928640207 558.7199543182712L449.33227928640207 466.08005823395865L460.4940789787667 466.08005823395865L460.4940789787667 558.7199543182712Q460.4940789787667 570.9766444436743 461.80186477378487 578.0934322584244Q463.14006419194305 585.2102200731747 466.4247354910585 588.0386870251907Q469.709406790174 590.897567600347 475.60964967932586 590.897567600347L475.60964967932586 590.897567600347Q476.27874938840495 592.8744531044442 476.49164475038464 595.0642339705212Q476.7045401123644 597.2540148365981 476.7045401123644 600.3257907737338L476.7045401123644 600.3257907737338Q473.4198688132489 600.0824817886141 469.58775229761414 599.9912409191943Q465.75563578197944 599.8695864266344 462.0451737589046 599.7783455572146Q458.3042981126897 599.6566910646548 455.01962681357423 599.6566910646548L455.01962681357423 599.6566910646548Q451.94785087643845 599.6566910646548 447.8115981294041 599.7783455572146Q443.64493175922985 599.8695864266344 439.81281524359514 599.9912409191943Q435.98069872796043 600.0824817886141 433.12181815280434 600.3257907737338ZM550.9441941970022 600.9644768596729L550.9441941970022 600.9644768596729L549.1802040548846 579.0666681989032L549.1802040548846 491.4754335558237Q549.1802040548846 479.43163879240024 547.8724182598664 472.77105532474945Q546.5646324648483 466.08005823395865 543.2799611657329 463.22117765880256Q539.9952898666174 460.3927107067865 534.0646333543255 460.3927107067865L534.0646333543255 460.3927107067865Q533.4259472683864 456.6518350605716 533.2130519064067 454.79660404903416Q532.969742921287 452.9413730374967 532.969742921287 450.96448753339945L532.969742921287 450.96448753339945Q536.2544142204024 451.17738289537914 539.7823945046375 451.29903738793894Q543.2799611657329 451.4206918804988 546.8991823193878 451.5119327499187Q550.487989849903 451.6335872424785 553.5597657870387 451.6335872424785L553.5597657870387 451.6335872424785Q558.1522228811723 451.6335872424785 564.0828793934643 451.4206918804988Q569.983122282616 451.17738289537914 574.3626840147699 450.96448753339945L574.3626840147699 450.96448753339945Q574.3626840147699 453.15426839947645 574.1497886527902 455.5569446275331Q573.9368932908105 457.99003447872974 573.2677935817314 460.3927107067865L573.2677935817314 460.3927107067865Q568.4624411256182 460.3927107067865 565.6035605504621 463.22117765880256Q562.7750935984459 466.08005823395865 561.5585486728476 472.77105532474945Q560.3420037472492 479.43163879240024 560.3420037472492 491.4754335558237L560.3420037472492 491.4754335558237L560.3420037472492 599.6566910646548Q558.6084272282717 600.3257907737338 555.9624420150953 600.6299270051334Q553.346870425059 600.9644768596729 550.9441941970022 600.9644768596729Z " fill="#ffffff" transform="matrix(0.3708367108403352,0,0,0.37083671084033526,0,104.9530696988272)"/><path d="M779.364099300347 496.6007168181318L765.3885442935178 529.0593746657828L765.3885442935178 511.82717026693024Q765.3885442935178 508.0960421555391 764.6121245709163 505.76678298773425Q763.8357048483145 503.43752381992937 761.3554751788928 502.2081925924768Q758.8752455094709 500.95729415050755 753.7422484544935 500.80632364889055L753.7422484544935 500.80632364889055Q753.7422484544935 499.1025137020703 754.0657566722442 497.7006447584841Q754.3676976754782 496.2987758148978 755.1441173980799 495.04787737292855L755.1441173980799 495.04787737292855Q759.9536062353064 494.74593636969456 766.1649640161195 493.19309692449133Q772.3763217969324 491.6402574792881 775.9564794067065 489.7854770308509L775.9564794067065 489.7854770308509Q777.3583483502929 490.23838853570186 778.3504402180616 491.7265263373549Q779.364099300347 493.19309692449133 779.364099300347 496.6007168181318L779.364099300347 496.6007168181318ZM825.3238334354595 515.8602393815553L825.3238334354595 542.582018167761Q825.3238334354595 550.6481563970112 827.5883909597143 553.3656254261168Q829.8313812694523 556.0830944552225 834.4898996050621 556.0830944552225L834.4898996050621 556.0830944552225Q834.9643783244297 557.4849633988088 835.1153488260467 559.037802844012Q835.2663193276636 560.5906422892153 835.2663193276636 562.7689309554032L835.2663193276636 562.7689309554032Q831.8586994340232 562.4454227376525 827.5021221016474 562.3807210941023Q823.1671119837885 562.2944522360356 818.336055932045 562.2944522360356L818.336055932045 562.2944522360356Q815.2303770416385 562.2944522360356 811.822757147998 562.3807210941023Q808.4151372543575 562.4454227376525 805.3741600075012 562.5316915957194Q802.3547499751617 562.5963932392694 799.8745203057398 562.7689309554032L799.8745203057398 562.7689309554032Q799.8745203057398 560.5906422892153 800.0254908073567 558.9515339859452Q800.1764613089738 557.3339928971918 800.6509400283414 556.0830944552225L800.6509400283414 556.0830944552225Q806.2368485881697 556.0830944552225 808.8033471156584 553.2146549244999Q811.3482784286304 550.3462153937772 811.3482784286304 542.582018167761L811.3482784286304 542.582018167761L811.3482784286304 518.9659182719618Q811.3482784286304 507.9450716539221 807.3152093140053 503.9767041828472Q803.2821401993803 500.02990392628897 796.9198119169504 500.02990392628897L796.9198119169504 500.02990392628897Q792.8867428023252 500.02990392628897 788.8321064731834 502.5964024537776Q784.7990373585584 505.1413337667496 782.0815683294527 510.81351118464477Q779.364099300347 516.48568860254 779.364099300347 525.9536957753763L779.364099300347 525.9536957753763L779.364099300347 542.582018167761Q779.364099300347 550.3462153937772 781.6933584681518 553.2146549244999Q784.0226176359567 556.0830944552225 790.0830049151526 556.0830944552225L790.0830049151526 556.0830944552225Q790.5574836345203 557.4849633988088 790.7084541361373 559.037802844012Q790.8594246377544 560.5906422892153 790.8594246377544 562.7689309554032L790.8594246377544 562.7689309554032Q788.6811359715665 562.5963932392694 785.5754570811599 562.5316915957194Q782.4697781907536 562.4454227376525 779.0621582971131 562.3807210941023Q775.6329711889558 562.2944522360356 772.3763217969324 562.2944522360356L772.3763217969324 562.2944522360356Q769.270642906526 562.2944522360356 765.8630230128855 562.3807210941023Q762.4338359047284 562.4454227376525 759.3281570143218 562.5316915957194Q756.2224781239154 562.5963932392694 753.8932189561106 562.7689309554032L753.8932189561106 562.7689309554032Q753.8932189561106 560.5906422892153 754.0657566722442 558.9515339859452Q754.2167271738612 557.3339928971918 754.6696386787122 556.0830944552225L754.6696386787122 556.0830944552225Q760.7300259579082 556.0830944552225 763.059285125713 553.2146549244999Q765.3885442935178 550.3462153937772 765.3885442935178 542.582018167761L765.3885442935178 542.582018167761L765.3885442935178 511.82717026693024L779.364099300347 496.6007168181318Q779.364099300347 498.4770644810857 779.21312879873 500.80632364889055Q779.0621582971131 503.13558281669543 778.2857385745114 505.76678298773425L778.2857385745114 505.76678298773425Q778.7386500793624 504.9903632651326 779.21312879873 503.9767041828472Q779.6876075180977 502.98461231507844 780.6149977423163 501.7337138731092L780.6149977423163 501.7337138731092Q783.2461979133551 498.153556263335 789.0693458328673 494.35772650839374Q794.8924937523794 490.5618967534525 803.1311696977633 490.5618967534525L803.1311696977633 490.5618967534525Q809.0190192608255 490.5618967534525 814.065747457736 492.9558575648075Q819.1124756546466 495.3713855906792 822.2181545450532 500.87102529244066Q825.3238334354595 506.3922322087189 825.3238334354595 515.8602393815553L825.3238334354595 515.8602393815553ZM846.610674163454 562.7689309554032L846.610674163454 562.7689309554032Q846.610674163454 561.2160915101999 846.761644665071 559.4260127053128Q846.9126151666879 557.6359339004258 847.3870938860556 556.0830944552225L847.3870938860556 556.0830944552225Q853.5984516668685 556.0830944552225 855.8414419766066 553.2146549244999Q858.1059995008612 550.3462153937772 858.1059995008612 542.582018167761L858.1059995008612 542.582018167761L858.1059995008612 511.82717026693024Q858.1059995008612 508.0960421555391 857.3942814218098 505.7020813441841Q856.704130557275 503.2865533183124 854.2239008878532 502.03565487634313Q851.7221040039146 500.80632364889055 846.459703661837 500.80632364889055L846.459703661837 500.80632364889055Q846.459703661837 499.1025137020703 846.761644665071 497.7006447584841Q847.0635856683049 496.2987758148978 847.8400053909065 495.04787737292855L847.8400053909065 495.04787737292855Q850.1692645587113 495.04787737292855 854.4395730330203 494.2714576503269Q858.7098815073292 493.4950379277253 862.764517836471 492.26570670027274Q866.797586951096 491.01480825830345 868.6523673995333 489.7854770308509L868.6523673995333 489.7854770308509Q870.0542363431196 490.23838853570186 871.067895425405 491.6402574792881Q872.0815545076904 493.0421264228744 872.0815545076904 495.99683481166386L872.0815545076904 495.99683481166386L872.0815545076904 542.582018167761Q872.0815545076904 550.3462153937772 874.1735743158115 553.2146549244999Q876.2655941239325 556.0830944552225 881.2260534627761 556.0830944552225L881.2260534627761 556.0830944552225Q881.7005321821438 557.6359339004258 881.8515026837608 559.6632520649966Q882.0024731853779 561.6690030150509 882.0024731853779 562.7689309554032L882.0024731853779 562.7689309554032Q879.371273014339 562.5963932392694 876.4165646255494 562.5316915957194Q873.46185623676 562.4454227376525 870.4424462044203 562.3807210941023Q867.4230361720807 562.2944522360356 864.4683277832912 562.2944522360356L864.4683277832912 562.2944522360356Q861.5136193945017 562.2944522360356 858.3216716460284 562.3807210941023Q855.1512911120718 562.4454227376525 852.1965827232823 562.5316915957194Q849.2418743344928 562.5963932392694 846.610674163454 562.7689309554032ZM863.8428785623066 472.2297644142476L863.8428785623066 472.2297644142476Q859.9607799492985 472.2297644142476 857.3295797782597 469.5985642432088Q854.6768123927042 466.94579685765325 854.6768123927042 463.21466874626213L854.6768123927042 463.21466874626213Q854.6768123927042 459.0306291300201 857.4805502798766 456.3994289589813Q860.2627209525325 453.74666157342574 863.8428785623066 453.74666157342574L863.8428785623066 453.74666157342574Q868.0269181785486 453.74666157342574 870.5934167060374 456.3994289589813Q873.159915233526 459.0306291300201 873.159915233526 463.21466874626213L873.159915233526 463.21466874626213Q873.159915233526 466.79482635603625 870.4424462044203 469.5122953851419Q867.7249771753146 472.2297644142476 863.8428785623066 472.2297644142476ZM919.8960690912402 563.6963211796217L919.8960690912402 563.6963211796217Q910.7300029216377 563.6963211796217 906.3087239457119 558.9515339859452Q901.887444969786 554.2283140067854 901.887444969786 543.6603788935967L901.887444969786 543.6603788935967L901.887444969786 501.5827433714922Q899.558185801981 500.80632364889055 897.0779561325593 500.26714328597274Q894.5977264631374 499.70639570853825 890.7156278501293 499.55542520692126L890.7156278501293 499.55542520692126Q890.7156278501293 497.5496742568671 891.0175688533633 496.06153645521397Q891.3195098565972 494.5949658680776 892.0959295791989 492.7186182051237L892.0959295791989 492.7186182051237L901.887444969786 492.7186182051237L901.887444969786 472.2297644142476Q904.9931238601924 471.45334469164595 908.0125338925321 469.7495347448258Q911.0535111393884 468.04572479800555 913.3827703071933 466.01840663343467L913.3827703071933 466.01840663343467Q914.9356097523965 466.64385585441926 915.3885212572475 467.87318708187183Q915.8629999766151 469.12408552384113 915.8629999766151 474.0845448626848L915.8629999766151 474.0845448626848L915.8629999766151 492.7186182051237L936.0499127642572 492.7186182051237Q936.0499127642572 494.2714576503269 935.7479717610232 496.06153645521397Q935.4244635432726 497.8516152601011 934.648043820671 499.55542520692126L934.648043820671 499.55542520692126Q929.0621352608426 499.70639570853825 924.403616925233 500.26714328597274Q919.7450985896232 500.80632364889055 915.8629999766151 501.5827433714922L915.8629999766151 501.5827433714922L915.8629999766151 540.4037295015731Q915.8629999766151 545.5151593420338 916.9413607024507 548.8580775921241Q918.041288642803 552.2009958422145 920.0470395928572 553.7538352874177Q922.0743577574281 555.3066747326209 924.8780956446005 555.3066747326209L924.8780956446005 555.3066747326209Q928.134745036624 555.3066747326209 930.528705847979 554.3792845084023Q932.9442338738507 553.4518942841837 935.1225225400386 551.5755466212298L935.1225225400386 551.5755466212298Q937.1282734900929 553.9048057890346 937.4517817078435 556.7085436762072L937.4517817078435 556.7085436762072Q934.9715520384217 559.6632520649966 929.924823841511 561.6690030150509Q924.8780956446005 563.6963211796217 919.8960690912402 563.6963211796217ZM1019.1268230826305 515.8602393815553L1019.1268230826305 542.582018167761Q1019.1268230826305 550.6481563970112 1021.3698133923687 553.3656254261168Q1023.6343709166233 556.0830944552225 1028.2928892522332 556.0830944552225L1028.2928892522332 556.0830944552225Q1028.745800757084 557.4849633988088 1028.9183384732178 559.037802844012Q1029.0693089748347 560.5906422892153 1029.0693089748347 562.7689309554032L1029.0693089748347 562.7689309554032Q1025.6401218666774 562.4454227376525 1021.3051117488184 562.3807210941023Q1016.9485344164426 562.2944522360356 1012.139045579216 562.2944522360356L1012.139045579216 562.2944522360356Q1009.0333666888095 562.2944522360356 1005.625746795169 562.3807210941023Q1002.1965596870119 562.4454227376525 999.1771496546722 562.5316915957194Q996.1361724078159 562.5963932392694 993.6559427383941 562.7689309554032L993.6559427383941 562.7689309554032Q993.6559427383941 560.5906422892153 993.8069132400111 558.9515339859452Q993.9794509561448 557.3339928971918 994.4323624609957 556.0830944552225L994.4323624609957 556.0830944552225Q1000.018271020824 556.0830944552225 1002.5847695483127 553.2146549244999Q1005.1512680758013 550.3462153937772 1005.1512680758013 542.582018167761L1005.1512680758013 542.582018167761L1005.1512680758013 518.9659182719618Q1005.1512680758013 507.9450716539221 1001.1181989611763 503.9767041828472Q997.0851298465512 500.02990392628897 990.7012343496045 500.02990392628897L990.7012343496045 500.02990392628897Q986.6681652349795 500.02990392628897 982.6350961203544 502.5964024537776Q978.6020270057293 505.1413337667496 975.8845579766237 510.81351118464477Q973.167088947518 516.48568860254 973.167088947518 525.9536957753763L973.167088947518 525.9536957753763L973.167088947518 542.582018167761Q973.167088947518 550.3462153937772 975.4963481153228 553.2146549244999Q977.8256072831277 556.0830944552225 983.8859945623237 556.0830944552225L983.8859945623237 556.0830944552225Q984.3389060671747 557.4849633988088 984.4898765687916 559.037802844012Q984.6624142849253 560.5906422892153 984.6624142849253 562.7689309554032L984.6624142849253 562.7689309554032Q982.4841256187375 562.5963932392694 979.3784467283309 562.5316915957194Q976.2727678379244 562.4454227376525 972.8435807297673 562.3807210941023Q969.4359608361268 562.2944522360356 966.1793114441034 562.2944522360356L966.1793114441034 562.2944522360356Q963.0736325536969 562.2944522360356 959.6444454455398 562.3807210941023Q956.2368255518993 562.4454227376525 953.1311466614928 562.5316915957194Q950.0254677710864 562.5963932392694 947.6962086032814 562.7689309554032L947.6962086032814 562.7689309554032Q947.6962086032814 560.5906422892153 947.8471791048985 558.9515339859452Q947.9981496065154 557.3339928971918 948.4726283258832 556.0830944552225L948.4726283258832 556.0830944552225Q954.5330156050792 556.0830944552225 956.862274772884 553.2146549244999Q959.1915339406888 550.3462153937772 959.1915339406888 542.582018167761L959.1915339406888 542.582018167761L959.1915339406888 511.82717026693024L973.167088947518 496.6007168181318Q973.167088947518 498.4770644810857 973.016118445901 500.80632364889055Q972.8435807297673 503.13558281669543 972.0671610071657 505.76678298773425L972.0671610071657 505.76678298773425Q972.5416397265334 504.9903632651326 973.016118445901 503.9767041828472Q973.469029950752 502.98461231507844 974.3964201749706 501.7337138731092L974.3964201749706 501.7337138731092Q977.0491875605261 498.153556263335 982.8723354800383 494.35772650839374Q988.6954833995504 490.5618967534525 996.9125921304175 490.5618967534525L996.9125921304175 490.5618967534525Q1002.8220089079965 490.5618967534525 1007.868737104907 492.9558575648075Q1012.9154653018176 495.3713855906792 1016.021144192224 500.87102529244066Q1019.1268230826305 506.3922322087189 1019.1268230826305 515.8602393815553L1019.1268230826305 515.8602393815553ZM959.1915339406888 478.7430631982945L959.1915339406888 473.00618413684924Q959.1915339406888 469.27505602545807 958.4798158616373 466.8810952141031Q957.7896649971026 464.4655671882314 955.3094353276807 463.21466874626213Q952.829205658259 461.98533751880956 947.5452381016645 461.98533751880956L947.5452381016645 461.98533751880956Q947.5452381016645 460.2815275719894 947.8471791048985 458.8796586284031Q948.1706873226492 457.4777896848168 948.9471070452508 456.22689124284756L948.9471070452508 456.22689124284756Q951.2763662130557 456.22689124284756 955.5466746873645 455.45047152024597Q959.8169831616734 454.6740517976443 963.8500522762986 453.44472057019175Q967.8831213909236 452.19382212822245 969.7379018393608 450.9644909007699L969.7379018393608 450.9644909007699Q971.139770782947 451.41740240562086 972.1534298652325 452.8192713492071Q973.167088947518 454.2211402927934 973.167088947518 457.17584868158286L973.167088947518 457.17584868158286L973.167088947518 478.7430631982945L959.1915339406888 478.7430631982945ZM959.1915339406888 514.1564294347351L959.1915339406888 473.00618413684924L973.167088947518 473.00618413684924L973.167088947518 496.6007168181318L959.1915339406888 514.1564294347351ZM1040.3920965961083 562.7689309554032L1040.3920965961083 562.7689309554032Q1040.3920965961083 561.2160915101999 1040.564634312242 559.4260127053128Q1040.715604813859 557.6359339004258 1041.1685163187099 556.0830944552225L1041.1685163187099 556.0830944552225Q1047.379874099523 556.0830944552225 1049.6444316237776 553.2146549244999Q1051.8874219335157 550.3462153937772 1051.8874219335157 542.582018167761L1051.8874219335157 542.582018167761L1051.8874219335157 511.82717026693024Q1051.8874219335157 508.0960421555391 1051.1972710689806 505.7020813441841Q1050.4855529899291 503.2865533183124 1048.0053233205076 502.03565487634313Q1045.5250936510856 500.80632364889055 1040.2411260944914 500.80632364889055L1040.2411260944914 500.80632364889055Q1040.2411260944914 499.1025137020703 1040.564634312242 497.7006447584841Q1040.866575315476 496.2987758148978 1041.6429950380775 495.04787737292855L1041.6429950380775 495.04787737292855Q1043.9722542058826 495.04787737292855 1048.2425626801914 494.2714576503269Q1052.5128711545003 493.4950379277253 1056.5459402691254 492.26570670027274Q1060.5790093837504 491.01480825830345 1062.4553570467042 489.7854770308509L1062.4553570467042 489.7854770308509Q1063.8572259902908 490.23838853570186 1064.8493178580593 491.6402574792881Q1065.8629769403447 493.0421264228744 1065.8629769403447 495.99683481166386L1065.8629769403447 495.99683481166386L1065.8629769403447 542.582018167761Q1065.8629769403447 550.3462153937772 1067.9549967484659 553.2146549244999Q1070.0685837711035 556.0830944552225 1075.029043109947 556.0830944552225L1075.029043109947 556.0830944552225Q1075.5035218293146 557.6359339004258 1075.654492330932 559.6632520649966Q1075.805462832549 561.6690030150509 1075.805462832549 562.7689309554032L1075.805462832549 562.7689309554032Q1073.17426266151 562.5963932392694 1070.2195542727204 562.5316915957194Q1067.2648458839308 562.4454227376525 1064.2454358515915 562.3807210941023Q1061.204458604735 562.2944522360356 1058.2497502159454 562.2944522360356L1058.2497502159454 562.2944522360356Q1055.3166090416726 562.2944522360356 1052.1246612931996 562.3807210941023Q1048.932713544726 562.4454227376525 1045.9995723704533 562.5316915957194Q1043.0448639816636 562.5963932392694 1040.3920965961083 562.7689309554032ZM1057.6458682094776 472.2297644142476L1057.6458682094776 472.2297644142476Q1053.7637695964695 472.2297644142476 1051.1110022109137 469.5985642432088Q1048.4798020398753 466.94579685765325 1048.4798020398753 463.21466874626213L1048.4798020398753 463.21466874626213Q1048.4798020398753 459.0306291300201 1051.2619727125311 456.3994289589813Q1054.0657105997034 453.74666157342574 1057.6458682094776 453.74666157342574L1057.6458682094776 453.74666157342574Q1061.8299078257196 453.74666157342574 1064.3964063532085 456.3994289589813Q1066.962904880697 459.0306291300201 1066.962904880697 463.21466874626213L1066.962904880697 463.21466874626213Q1066.962904880697 466.79482635603625 1064.2454358515915 469.5122953851419Q1061.5279668224857 472.2297644142476 1057.6458682094776 472.2297644142476ZM1136.5171716970922 495.2204150890622L1136.5171716970922 495.2204150890622Q1136.3662011954752 498.92997598593666 1136.2799323374084 503.13558281669543Q1136.2152306938583 507.3196224329375 1136.840679914843 511.3526915475626L1136.840679914843 511.3526915475626Q1135.2878404696394 512.3016489862979 1133.2605223050687 512.7545604911488Q1131.233204140498 513.2290392105165 1129.0764826888267 513.2290392105165L1129.0764826888267 513.2290392105165Q1128.752974471076 508.8724618781407 1126.5099841613378 504.9903632651326Q1124.2454266370833 501.1082646521245 1120.535865740209 498.6280349827027Q1116.8047376288177 496.14780531328086 1111.6717405738405 496.14780531328086L1111.6717405738405 496.14780531328086Q1106.8622517366134 496.14780531328086 1103.9938122058911 498.4770644810857Q1101.1253726751684 500.80632364889055 1101.1253726751684 504.68842226189867L1101.1253726751684 504.68842226189867Q1101.1253726751684 507.3196224329375 1102.2900022590707 509.34694059750836Q1103.4546318429734 511.3526915475626 1107.4014320995316 513.6172490718172Q1111.3697995706066 515.8602393815553 1119.5869083014736 519.1168887735787L1119.5869083014736 519.1168887735787Q1127.9765547484744 522.2225676639853 1132.786043585701 525.3282465543917Q1137.6170996374444 528.4339254447982 1139.6228505874988 532.3160240578063Q1141.6501687520695 536.1981226708144 1141.6501687520695 541.8055984451594L1141.6501687520695 541.8055984451594Q1141.6501687520695 548.3188972292064 1137.9190406406783 553.27935656805Q1134.1879125292871 558.2613831214104 1127.7393153887906 560.9788521505161Q1121.3122854628105 563.6963211796217 1113.2245800190435 563.6963211796217L1113.2245800190435 563.6963211796217Q1103.9075433478242 563.6963211796217 1098.4079036460626 562.2081833779687Q1092.8866967297845 560.7416127908323 1087.6027291731903 557.9378749036598L1087.6027291731903 557.9378749036598Q1087.9262373909405 555.4576452342379 1087.990939034491 551.8990548389804Q1088.077207892558 548.3188972292064 1088.077207892558 544.7387396194322Q1088.077207892558 541.1801492241748 1087.7536996748072 538.699919554753L1087.7536996748072 538.699919554753Q1089.0045981167764 537.7509621160176 1091.2475884265145 537.3627522547168Q1093.512145950769 536.974542393416 1095.8414051185741 536.974542393416L1095.8414051185741 536.974542393416Q1097.0707363460265 546.7660577840031 1101.90179239777 551.5755466212298Q1106.7112812349965 556.3850354584565 1114.777419464247 556.3850354584565L1114.777419464247 556.3850354584565Q1121.1397477466767 556.3850354584565 1124.633636498384 553.6028647858006Q1128.1275252500914 550.7991268986282 1128.1275252500914 546.4641167807691L1128.1275252500914 546.4641167807691Q1128.1275252500914 543.6603788935967 1126.8119251645717 541.6330607290257Q1125.4963250790524 539.6273097789715 1121.9161674692782 537.5999916144007Q1118.3575770740208 535.5942406643464 1111.3697995706066 532.790502777174L1111.3697995706066 532.790502777174Q1102.9801531236053 529.3828828835335 1097.933424926695 526.4281744947441Q1092.8866967297845 523.4734661059545 1090.6437064200463 519.4403969913294Q1088.3791488957918 515.4073278767044 1088.3791488957918 509.1959700958914L1088.3791488957918 509.1959700958914Q1088.3791488957918 504.213943542531 1090.8593785652138 500.5690842892067Q1093.3611754491521 496.92422503588244 1097.3079757057103 494.50869701001074Q1101.2763431767853 492.11473619865575 1105.783891010778 490.95010661475334Q1110.2698716302539 489.7854770308509 1114.151970243262 489.7854770308509L1114.151970243262 489.7854770308509Q1121.1397477466767 489.7854770308509 1126.423715303271 491.16577875992044Q1131.7076828598656 492.56764770350674 1136.5171716970922 495.2204150890622ZM1224.8780495720598 515.8602393815553L1224.8780495720598 542.582018167761Q1224.8780495720598 550.6481563970112 1227.121039881798 553.3656254261168Q1229.3855974060525 556.0830944552225 1234.0441157416622 556.0830944552225L1234.0441157416622 556.0830944552225Q1234.497027246513 557.4849633988088 1234.6695649626467 559.037802844012Q1234.8205354642637 560.5906422892153 1234.8205354642637 562.7689309554032L1234.8205354642637 562.7689309554032Q1231.3913483561068 562.4454227376525 1227.0563382382475 562.3807210941023Q1222.6997609058717 562.2944522360356 1217.8902720686451 562.2944522360356L1217.8902720686451 562.2944522360356Q1214.7845931782385 562.2944522360356 1211.3769732845985 562.3807210941023Q1207.9477861764412 562.4454227376525 1204.9283761441015 562.5316915957194Q1201.887398897245 562.5963932392694 1199.4071692278235 562.7689309554032L1199.4071692278235 562.7689309554032Q1199.4071692278235 560.5906422892153 1199.5581397294404 558.9515339859452Q1199.7306774455742 557.3339928971918 1200.183588950425 556.0830944552225L1200.183588950425 556.0830944552225Q1205.7694975102531 556.0830944552225 1208.335996037742 553.2146549244999Q1210.9024945652304 550.3462153937772 1210.9024945652304 542.582018167761L1210.9024945652304 542.582018167761L1210.9024945652304 518.9659182719618Q1210.9024945652304 507.9450716539221 1206.8694254506054 503.9767041828472Q1202.8363563359803 500.02990392628897 1196.4524608390338 500.02990392628897L1196.4524608390338 500.02990392628897Q1192.4193917244088 500.02990392628897 1188.3863226097837 502.5964024537776Q1184.3532534951587 505.1413337667496 1181.6357844660529 510.81351118464477Q1178.918315436947 516.48568860254 1178.918315436947 525.9536957753763L1178.918315436947 525.9536957753763L1178.918315436947 542.582018167761Q1178.918315436947 550.3462153937772 1181.2475746047521 553.2146549244999Q1183.5768337725572 556.0830944552225 1189.637221051753 556.0830944552225L1189.637221051753 556.0830944552225Q1190.0901325566037 557.4849633988088 1190.2411030582207 559.037802844012Q1190.4136407743545 560.5906422892153 1190.4136407743545 562.7689309554032L1190.4136407743545 562.7689309554032Q1188.2353521081668 562.5963932392694 1185.1296732177602 562.5316915957194Q1182.0239943273536 562.4454227376525 1178.5948072191968 562.3807210941023Q1175.187187325556 562.2944522360356 1171.9305379335328 562.2944522360356L1171.9305379335328 562.2944522360356Q1168.8248590431263 562.2944522360356 1165.395671934969 562.3807210941023Q1161.9880520413285 562.4454227376525 1158.882373150922 562.5316915957194Q1155.7766942605158 562.5963932392694 1153.4474350927107 562.7689309554032L1153.4474350927107 562.7689309554032Q1153.4474350927107 560.5906422892153 1153.5984055943277 558.9515339859452Q1153.7493760959446 557.3339928971918 1154.2238548153123 556.0830944552225L1154.2238548153123 556.0830944552225Q1160.2842420945085 556.0830944552225 1162.613501262313 553.2146549244999Q1164.9427604301181 550.3462153937772 1164.9427604301181 542.582018167761L1164.9427604301181 542.582018167761L1164.9427604301181 511.82717026693024L1178.918315436947 496.6007168181318Q1178.918315436947 498.4770644810857 1178.7673449353301 500.80632364889055Q1178.5948072191968 503.13558281669543 1177.8183874965948 505.76678298773425L1177.8183874965948 505.76678298773425Q1178.2928662159625 504.9903632651326 1178.7673449353301 503.9767041828472Q1179.2202564401814 502.98461231507844 1180.1476466643999 501.7337138731092L1180.1476466643999 501.7337138731092Q1182.8004140499552 498.153556263335 1188.6235619694676 494.35772650839374Q1194.4467098889795 490.5618967534525 1202.663818619847 490.5618967534525L1202.663818619847 490.5618967534525Q1208.5732353974258 490.5618967534525 1213.6199635943362 492.9558575648075Q1218.6666917912466 495.3713855906792 1221.7723706816532 500.87102529244066Q1224.8780495720598 506.3922322087189 1224.8780495720598 515.8602393815553L1224.8780495720598 515.8602393815553ZM1164.9427604301181 478.7430631982945L1164.9427604301181 473.00618413684924Q1164.9427604301181 469.27505602545807 1164.2310423510667 466.8810952141031Q1163.540891486532 464.4655671882314 1161.06066181711 463.21466874626213Q1158.580432147688 461.98533751880956 1153.2964645910938 461.98533751880956L1153.2964645910938 461.98533751880956Q1153.2964645910938 460.2815275719894 1153.5984055943277 458.8796586284031Q1153.9219138120784 457.4777896848168 1154.69833353468 456.22689124284756L1154.69833353468 456.22689124284756Q1157.027592702485 456.22689124284756 1161.2979011767939 455.45047152024597Q1165.5682096511027 454.6740517976443 1169.6012787657278 453.44472057019175Q1173.6343478803528 452.19382212822245 1175.4891283287902 450.9644909007699L1175.4891283287902 450.9644909007699Q1176.8909972723764 451.41740240562086 1177.9046563546617 452.8192713492071Q1178.918315436947 454.2211402927934 1178.918315436947 457.17584868158286L1178.918315436947 457.17584868158286L1178.918315436947 478.7430631982945L1164.9427604301181 478.7430631982945ZM1164.9427604301181 514.1564294347351L1164.9427604301181 473.00618413684924L1178.918315436947 473.00618413684924L1178.918315436947 496.6007168181318L1164.9427604301181 514.1564294347351ZM1252.2037103647335 516.6366591041569L1296.157693549792 516.6366591041569Q1296.157693549792 519.1168887735787 1295.6832148304243 521.8343578026844Q1295.230303325573 524.5518268317901 1294.1303753852212 526.730115497978L1294.1303753852212 526.730115497978Q1289.9463357689788 526.730115497978 1284.0369189914 526.8163843560449Q1278.1490694283375 526.8810859995949 1271.765173931391 526.9673548576618Q1265.402845648961 527.0536237157287 1259.6659665875159 527.1183253592787Q1253.9075203115535 527.2045942173456 1249.7234806953115 527.3555647189626L1249.7234806953115 527.3555647189626Q1249.7234806953115 524.7243645479238 1250.4136315598466 521.6833873010675Q1251.1253496388981 518.6639772687279 1252.2037103647335 516.6366591041569L1252.2037103647335 516.6366591041569ZM1338.8607782928812 600.9644678644995L1338.8607782928812 600.9644678644995Q1329.3927711200445 600.9644678644995 1323.3970854843988 598.5489398386278Q1317.4229670632694 596.1549790272727 1314.640796390614 591.4964606916631Q1311.8370585034413 586.8379423560534 1311.8370585034413 580.0011353542557L1311.8370585034413 580.0011353542557Q1311.8370585034413 574.0917185766768 1315.0290062519143 569.7567084588177Q1318.199386785871 565.4001311264419 1323.9578330618333 562.9199014570202L1323.9578330618333 562.9199014570202L1331.7220302878495 563.5453506780048Q1327.9909021764583 566.3275213506606 1326.5890332328718 569.433200241067Q1325.1871642892856 572.5388791314735 1325.1871642892856 576.7444859622324L1325.1871642892856 576.7444859622324Q1325.1871642892856 584.6596536898655 1329.1555317603606 588.6927228044906Q1333.1023320169188 592.7257919191156 1342.5919064042719 592.7257919191156L1342.5919064042719 592.7257919191156Q1352.83633329971 592.7257919191156 1358.6594812192225 587.614362078655Q1364.4826291387344 582.4813650236777 1364.4826291387344 575.7955285234971L1364.4826291387344 575.7955285234971Q1364.4826291387344 571.7624594088718 1362.5415798322301 569.433200241067Q1360.6005305257263 567.1039410732621 1355.0793236094482 566.0255803474266Q1349.5796839076866 564.9256524070743 1338.8607782928812 564.9256524070743L1338.8607782928812 564.9256524070743Q1331.8730007894665 564.9256524070743 1327.4517218135406 564.2355015425396Q1323.008875623098 563.5453506780048 1320.463944310126 561.9062423747347Q1317.897445782637 560.2671340714646 1316.8837867003517 557.7869044020428Q1315.8701276180664 555.3066747326209 1315.8701276180664 551.7265171228468L1315.8701276180664 551.7265171228468Q1315.8701276180664 546.6150872823862 1318.9111048649224 541.7193295870926Q1321.9305148972626 536.823571891799 1326.7400037344892 532.9414732787909L1326.7400037344892 532.9414732787909L1332.498450010451 536.974542393416Q1329.3927711200445 539.6273097789715 1328.0556038200084 541.9565689467764Q1326.7400037344892 544.2858281145812 1326.7400037344892 545.9896380614015L1326.7400037344892 545.9896380614015Q1326.7400037344892 548.7933759485741 1328.2281415361422 550.1736776776436Q1329.6947121232784 551.5755466212298 1334.5042009605054 552.0500253405975Q1339.313689797732 552.5029368454484 1349.2561756899358 552.5029368454484L1349.2561756899358 552.5029368454484Q1359.6731403015078 552.5029368454484 1365.7982292242536 554.2283140067854Q1371.923318147 555.9321239536056 1374.6407871761057 559.6632520649966Q1377.358256205211 563.3728129618711 1377.358256205211 569.7567084588177L1377.358256205211 569.7567084588177Q1377.358256205211 575.0191088008953 1374.4898166744888 580.5403157171736Q1371.6213771437656 586.0615226334517 1366.4883800887883 590.6337721109946Q1361.3769502483278 595.2060215885374 1354.3029038868467 598.0960283337768Q1347.2504247398815 600.9644678644995 1338.8607782928812 600.9644678644995ZM1342.5919064042719 540.7056705048071L1342.5919064042719 540.7056705048071Q1335.280620683107 540.7056705048071 1328.7673218990599 537.9234998321513Q1322.2324559004965 535.1197619449788 1318.2856556439383 529.5338533851505Q1314.3172881728628 523.9479448253221 1314.3172881728628 515.5582983783213L1314.3172881728628 515.5582983783213Q1314.3172881728628 508.4195503732898 1317.4229670632694 502.5964024537776Q1320.528645953676 496.77325453426545 1326.826272592556 493.2793657825582Q1333.1023320169188 489.7854770308509 1342.2683981865216 489.7854770308509L1342.2683981865216 489.7854770308509Q1350.0325954125374 489.7854770308509 1355.402831827199 492.3304083438229Q1360.7515010273432 494.89690687131156 1364.1591209209837 498.8652743423865Q1367.5883080291405 502.8120745989447 1369.141147474344 507.08238307325365Q1370.6939869195471 511.3526915475626 1370.6939869195471 514.6309081541027L1370.6939869195471 514.6309081541027Q1370.6939869195471 521.7696561591342 1367.502039171074 527.7437745802634Q1364.3316586371175 533.7178930013926 1358.0340319982374 537.2117817530998Q1351.7364053593578 540.7056705048071 1342.5919064042719 540.7056705048071ZM1344.4466868527093 533.5669224997755L1344.4466868527093 533.5669224997755Q1349.5796839076866 533.5669224997755 1352.83633329971 529.2966140254666Q1356.0929826917336 525.0263055511577 1356.0929826917336 516.9601673219076L1356.0929826917336 516.9601673219076Q1356.0929826917336 508.7214913765237 1352.0599135771085 502.7473729553946Q1348.0268444624835 496.77325453426545 1340.715558741318 496.77325453426545L1340.715558741318 496.77325453426545Q1334.5042009605054 496.77325453426545 1331.5494925717157 501.97095323279297Q1328.616351397443 507.1686519313205 1328.616351397443 513.5309802137505L1328.616351397443 513.5309802137505Q1328.616351397443 523.1715251027206 1332.800391013685 528.369223801248Q1336.984430629927 533.5669224997755 1344.4466868527093 533.5669224997755ZM1378.6091546471803 500.80632364889055L1378.6091546471803 500.80632364889055Q1376.1289249777587 500.1808744279059 1372.6350362260514 499.55542520692126Q1369.141147474344 498.92997598593666 1365.7982292242536 498.4770644810857Q1362.4553109741632 498.002585761718 1360.1260518063586 497.8516152601011L1360.1260518063586 497.8516152601011L1349.2561756899358 491.16577875992044L1377.5307939213449 491.16577875992044Q1378.1346759278126 493.19309692449133 1378.3719152874964 495.75959545198003Q1378.6091546471803 498.32609397946874 1378.6091546471803 500.80632364889055ZM1438.0915322842711 563.6963211796217L1438.0915322842711 563.6963211796217Q1436.3661551229343 562.9199014570202 1435.3740632551653 560.8925832924492Q1434.36040417288 558.8868323423951 1434.36040417288 554.5302550100193L1434.36040417288 554.5302550100193Q1434.36040417288 553.128386066433 1434.511374674497 551.1873367599289Q1434.6623451761138 549.2462874534249 1435.1368238954815 547.6934480082217L1435.1368238954815 547.6934480082217L1435.4387648987158 547.6934480082217Q1434.9858533938645 550.1736776776436 1433.3467450905946 553.063684422883Q1431.7076367873246 555.9321239536056 1429.0764366162857 558.1104126197935L1429.0764366162857 558.1104126197935Q1426.4452364452468 560.4396717875983 1422.390600116105 561.9062423747347Q1418.3575310014799 563.3728129618711 1412.6206519400348 563.3728129618711L1412.6206519400348 563.3728129618711Q1402.8291365494479 563.3728129618711 1397.717706708987 558.9515339859452Q1392.5847096540097 554.5302550100193 1392.5847096540097 546.9170282856201L1392.5847096540097 546.9170282856201Q1392.5847096540097 540.8566410064241 1395.4531491847324 536.5863325321152Q1398.3215887154547 532.3160240578063 1402.9154054075143 529.4475845270836Q1407.4876548850575 526.579144996361 1412.8578912997186 524.8753350495408Q1418.206560499863 523.1715251027206 1423.3395575548402 522.2225676639853Q1428.4509873953011 521.2951774397666 1432.3330860083092 520.669728218782L1432.3330860083092 520.669728218782Q1432.3330860083092 514.3073999363521 1432.0958466486254 510.74880954109466Q1431.8801745034584 507.1686519313205 1431.168456424407 505.0766321231995Q1430.4783055598718 502.98461231507844 1429.0764366162857 501.4317728698752L1429.0764366162857 501.4317728698752Q1427.2216561678483 499.1025137020703 1424.8061281419768 497.9378841181679Q1422.390600116105 496.77325453426545 1419.457458941832 496.77325453426545L1419.457458941832 496.77325453426545Q1414.3244618868548 496.77325453426545 1411.3697534980656 499.9436350682221Q1408.415045109276 503.13558281669543 1407.1857138818232 507.3196224329375Q1405.934815439854 511.52522926369625 1405.783844938237 514.7818786557198L1405.783844938237 514.7818786557198Q1404.080034991417 514.7818786557198 1401.5135364639282 514.5446392960359Q1398.9470379364393 514.3073999363521 1397.717706708987 513.6819507153674L1397.717706708987 513.6819507153674Q1398.0196477122208 509.7998521023593 1397.868677210604 504.9903632651326Q1397.717706708987 500.1808744279059 1396.9412869863854 496.77325453426545L1396.9412869863854 496.77325453426545Q1403.303615268815 493.4950379277253 1410.3560944157803 491.6402574792881Q1417.4301407772614 489.7854770308509 1423.3395575548402 489.7854770308509L1423.3395575548402 489.7854770308509Q1429.0764366162857 489.7854770308509 1433.1957745889777 491.40301811960427Q1437.3151125616696 493.0421264228744 1439.7953422310916 495.6733265939132L1439.7953422310916 495.6733265939132Q1443.8284113457166 499.55542520692126 1445.0793097876858 505.8530518458011Q1446.3086410151382 512.1291112701642 1446.3086410151382 522.546075881736L1446.3086410151382 522.546075881736L1446.3086410151382 539.6273097789715Q1446.3086410151382 543.9623198968306 1447.0203590941896 546.5288184243193Q1447.7105099587247 549.095316951808 1449.7378281232955 550.2599465357105Q1451.7435790733498 551.4245761196128 1455.9491859041086 551.7265171228468L1455.9491859041086 551.7265171228468Q1455.9491859041086 553.27935656805 1455.7766481879748 555.2204058745541Q1455.625677686358 557.1614551810582 1455.0002284653733 558.8868323423951L1455.0002284653733 558.8868323423951Q1451.1181298523652 559.037802844012 1446.394909873205 560.3534029295315Q1441.6501226795285 561.6690030150509 1438.0915322842711 563.6963211796217ZM1416.9556620578937 554.8321960132532L1416.9556620578937 554.8321960132532Q1420.384849166051 554.8321960132532 1423.9434395613084 552.5892057035153Q1427.5235971710827 550.3462153937772 1429.9391251969541 545.5151593420338Q1432.3330860083092 540.7056705048071 1432.3330860083092 532.9414732787909L1432.3330860083092 532.9414732787909L1432.3330860083092 527.0536237157287Q1428.4509873953011 527.5065352205796 1424.1159772774422 528.369223801248Q1419.7593999450664 529.2103451673997 1416.0282718336753 530.9357223287368Q1412.297143722284 532.639532275557 1409.967884554479 535.6589423078966Q1407.6386253866744 538.699919554753 1407.6386253866744 543.8113493952136L1407.6386253866744 543.8113493952136Q1407.6386253866744 549.5697956711756 1410.4423632738467 552.2009958422145Q1413.2461011610194 554.8321960132532 1416.9556620578937 554.8321960132532ZM1467.595481743133 600.9644678644995L1467.595481743133 600.9644678644995Q1466.4955538027803 600.3390186435149 1465.4818947204953 599.2606579176793Q1464.4898028527264 598.160729977327 1464.1662946349757 596.6078905321237L1464.1662946349757 596.6078905321237Q1470.2266819141714 589.7710835303262 1473.483331306195 584.2714438285645Q1476.7399806982185 578.7502369122865 1478.0771479982545 572.8623873492243Q1479.3927480837742 566.9529705716452 1479.3927480837742 559.339743847246L1479.3927480837742 559.339743847246L1479.3927480837742 511.82717026693024Q1479.3927480837742 508.0960421555391 1478.6810300047227 505.7020813441841Q1477.9908791401876 503.2865533183124 1475.5106494707657 502.03565487634313Q1473.0304198013441 500.80632364889055 1467.7464522447494 500.80632364889055L1467.7464522447494 500.80632364889055Q1467.7464522447494 499.1025137020703 1468.0483932479838 497.7006447584841Q1468.3719014657345 496.2987758148978 1469.148321188336 495.04787737292855L1469.148321188336 495.04787737292855Q1471.477580356141 495.04787737292855 1475.74788883045 494.2714576503269Q1480.0181973047588 493.4950379277253 1484.0512664193839 492.26570670027274Q1488.084335534009 491.01480825830345 1489.9391159824459 489.7854770308509L1489.9391159824459 489.7854770308509Q1491.340984926032 490.23838853570186 1492.3546440083178 491.6402574792881Q1493.3683030906031 493.0421264228744 1493.3683030906031 495.99683481166386L1493.3683030906031 495.99683481166386L1493.3683030906031 557.1614551810582Q1493.3683030906031 565.551101628059 1491.1037455663486 572.4741774879233Q1488.8607552566104 579.3756861332711 1485.1296271452193 584.8106241914825Q1481.398499033828 590.2455622496939 1476.8262495562853 594.2786313643189Q1472.2540000787426 598.311700478944 1467.595481743133 600.9644678644995ZM1485.1296271452193 472.2297644142476L1485.1296271452193 472.2297644142476Q1481.2475285322112 472.2297644142476 1478.6163283611722 469.5985642432088Q1475.963560975617 466.94579685765325 1475.963560975617 463.21466874626213L1475.963560975617 463.21466874626213Q1475.963560975617 459.0306291300201 1478.7672988627896 456.3994289589813Q1481.5710367499619 453.74666157342574 1485.1296271452193 453.74666157342574L1485.1296271452193 453.74666157342574Q1489.335233975978 453.74666157342574 1491.8801652889501 456.3994289589813Q1494.4466638164386 459.0306291300201 1494.4466638164386 463.21466874626213L1494.4466638164386 463.21466874626213Q1494.4466638164386 466.79482635603625 1491.7291947873332 469.5122953851419Q1489.0117257582274 472.2297644142476 1485.1296271452193 472.2297644142476ZM1541.031847172536 562.9199014570202L1541.031847172536 562.9199014570202Q1530.6364497754807 562.9199014570202 1524.727032997902 556.8595141778242Q1518.8391834348395 550.7991268986282 1518.8391834348395 535.2707324465957L1518.8391834348395 535.2707324465957L1518.8391834348395 511.82717026693024Q1518.8391834348395 506.3922322087189 1517.2863439896364 503.6747631796132Q1515.7335045444333 500.95729415050755 1508.5731893248849 500.80632364889055L1508.5731893248849 500.80632364889055Q1508.5731893248849 499.1025137020703 1508.8104286845687 497.7653464020342Q1509.0476680442525 496.4497463165148 1509.6731172652371 495.04787737292855L1509.6731172652371 495.04787737292855Q1514.4826061024642 494.74593636969456 1520.1547835203592 493.19309692449133Q1525.8269609382542 491.6402574792881 1529.3855513335116 489.7854770308509L1529.3855513335116 489.7854770308509Q1530.7874202770981 490.23838853570186 1531.8010793593835 491.7265263373549Q1532.8147384416689 493.19309692449133 1532.8147384416689 496.6007168181318L1532.8147384416689 496.6007168181318L1532.8147384416689 531.8631125529554Q1532.8147384416689 542.2585099500104 1535.6831779723916 547.8444185098388Q1538.5516175031144 553.4518942841837 1545.6903655081455 553.4518942841837L1545.6903655081455 553.4518942841837Q1553.4545627341618 553.4518942841837 1558.652261432689 546.9170282856201Q1563.8715273457337 540.4037295015731 1563.8715273457337 526.8810859995949L1563.8715273457337 526.8810859995949L1563.8715273457337 511.0507505443286Q1563.8715273457337 505.61581248611725 1561.9304780392295 502.8983434570116Q1559.9894287327256 500.1808744279059 1552.2252315067094 500.02990392628897L1552.2252315067094 500.02990392628897Q1552.2252315067094 498.32609397946874 1552.3762020083263 496.9889266794326Q1552.5271725099433 495.6733265939132 1553.3035922325448 494.2714576503269L1553.3035922325448 494.2714576503269Q1559.363979511741 493.969516647093 1565.187127431253 492.65391656157357Q1571.010275350765 491.33831647605416 1574.4178952444054 489.7854770308509L1574.4178952444054 489.7854770308509Q1575.819764187992 490.23838853570186 1576.8334232702773 491.7265263373549Q1577.8470823525627 493.19309692449133 1577.8470823525627 496.6007168181318L1577.8470823525627 496.6007168181318L1577.8470823525627 541.6330607290257L1565.7263077941707 547.3915070049877Q1564.9498880715691 549.3972579550419 1563.548019127983 551.338307261546Q1562.146150184397 553.27935656805 1560.4423402375764 555.004733729387L1560.4423402375764 555.004733729387Q1556.4092711229514 559.037802844012 1551.9017232889587 560.9788521505161Q1547.394175454966 562.9199014570202 1541.031847172536 562.9199014570202ZM1568.8319866845773 563.6963211796217L1568.8319866845773 563.6963211796217Q1567.2791472393742 562.9199014570202 1566.1145176554714 561.431763655367Q1564.9498880715691 559.9651930682306 1564.9498880715691 554.6812255116363L1564.9498880715691 554.6812255116363Q1564.9498880715691 552.977415564816 1565.187127431253 549.8717366744096Q1565.4243667909368 546.7660577840031 1566.5027275167727 541.1801492241748L1566.5027275167727 541.1801492241748L1577.8470823525627 541.1801492241748Q1577.8470823525627 544.7387396194322 1578.4509643590309 547.1542676453039Q1579.0764135800155 549.5697956711756 1581.1684333881362 550.6481563970112Q1583.2820204107743 551.7265171228468 1587.4660600270163 551.7265171228468L1587.4660600270163 551.7265171228468Q1587.4660600270163 553.27935656805 1587.3150895253993 555.2204058745541Q1587.164119023782 557.1614551810582 1586.5386698027974 558.8868323423951L1586.5386698027974 558.8868323423951Q1582.6565711897892 559.037802844012 1577.523574134812 560.3534029295315Q1572.4121442943515 561.6690030150509 1568.8319866845773 563.6963211796217ZM1599.2633263676576 562.7689309554032L1599.2633263676576 562.7689309554032Q1599.2633263676576 561.2160915101999 1599.4142968692745 559.4260127053128Q1599.5868345854078 557.6359339004258 1600.039746090259 556.0830944552225L1600.039746090259 556.0830944552225Q1606.2511038710718 556.0830944552225 1608.5156613953268 553.2146549244999Q1610.7586517050645 550.3462153937772 1610.7586517050645 542.582018167761L1610.7586517050645 542.582018167761L1610.7586517050645 473.00618413684924Q1610.7586517050645 469.27505602545807 1610.0685008405299 466.8810952141031Q1609.3567827614784 464.4655671882314 1606.8765530920568 463.21466874626213Q1604.3963234226349 461.98533751880956 1599.1123558660406 461.98533751880956L1599.1123558660406 461.98533751880956Q1599.1123558660406 460.2815275719894 1599.4142968692745 458.8796586284031Q1599.7378050870252 457.4777896848168 1600.5142248096267 456.22689124284756L1600.5142248096267 456.22689124284756Q1602.8434839774318 456.22689124284756 1607.1137924517402 455.45047152024597Q1611.3841009260495 454.6740517976443 1615.4171700406746 453.44472057019175Q1619.4502391552996 452.19382212822245 1621.3265868182534 450.9644909007699L1621.3265868182534 450.9644909007699Q1622.7068885473232 451.41740240562086 1623.7205476296085 452.8192713492071Q1624.7342067118939 454.2211402927934 1624.7342067118939 457.17584868158286L1624.7342067118939 457.17584868158286L1624.7342067118939 542.582018167761Q1624.7342067118939 550.3462153937772 1626.826226520015 553.2146549244999Q1628.9182463281359 556.0830944552225 1633.9002728814962 556.0830944552225L1633.9002728814962 556.0830944552225Q1634.353184386347 557.6359339004258 1634.5257221024808 559.6632520649966Q1634.6766926040982 561.6690030150509 1634.6766926040982 562.7689309554032L1634.6766926040982 562.7689309554032Q1632.0239252185424 562.5963932392694 1629.0907840442696 562.5316915957194Q1626.13607565548 562.4454227376525 1623.095098408624 562.3807210941023Q1620.0756883762842 562.2944522360356 1617.1209799874946 562.2944522360356L1617.1209799874946 562.2944522360356Q1614.1662715987054 562.2944522360356 1610.9958910647483 562.3807210941023Q1607.8039433162753 562.4454227376525 1604.8492349274857 562.5316915957194Q1601.9160937532129 562.5963932392694 1599.2633263676576 562.7689309554032ZM1693.3610833040702 563.6963211796217L1693.3610833040702 563.6963211796217Q1691.6572733572502 562.9199014570202 1690.6436142749649 560.8925832924492Q1689.651522407196 558.8868323423951 1689.651522407196 554.5302550100193L1689.651522407196 554.5302550100193Q1689.651522407196 553.128386066433 1689.8024929088128 551.1873367599289Q1689.9534634104298 549.2462874534249 1690.4279421297974 547.6934480082217L1690.4279421297974 547.6934480082217L1690.7298831330318 547.6934480082217Q1690.2554044136637 550.1736776776436 1688.6378633249105 553.063684422883Q1686.9987550216406 555.9321239536056 1684.3675548506017 558.1104126197935L1684.3675548506017 558.1104126197935Q1681.714787465046 560.4396717875983 1677.6817183504209 561.9062423747347Q1673.6486492357958 563.3728129618711 1667.9117701743507 563.3728129618711L1667.9117701743507 563.3728129618711Q1658.1202547837634 563.3728129618711 1652.987257728786 558.9515339859452Q1647.8758278883256 554.5302550100193 1647.8758278883256 546.9170282856201L1647.8758278883256 546.9170282856201Q1647.8758278883256 540.8566410064241 1650.7442674190484 536.5863325321152Q1653.6127069497707 532.3160240578063 1658.2065236418302 529.4475845270836Q1662.778773119373 526.579144996361 1668.1274423195177 524.8753350495408Q1673.4976787341789 523.1715251027206 1678.6091085746398 522.2225676639853Q1683.742105629617 521.2951774397666 1687.6242042426252 520.669728218782L1687.6242042426252 520.669728218782Q1687.6242042426252 514.3073999363521 1687.3869648829414 510.74880954109466Q1687.1497255232575 507.1686519313205 1686.4595746587229 505.0766321231995Q1685.7694237941878 502.98461231507844 1684.3675548506017 501.4317728698752L1684.3675548506017 501.4317728698752Q1682.491207187648 499.1025137020703 1680.0972463762928 497.9378841181679Q1677.6817183504209 496.77325453426545 1674.7270099616317 496.77325453426545L1674.7270099616317 496.77325453426545Q1669.6155801211708 496.77325453426545 1666.660871732381 499.9436350682221Q1663.706163343592 503.13558281669543 1662.4768321161391 507.3196224329375Q1661.22593367417 511.52522926369625 1661.074963172553 514.7818786557198L1661.074963172553 514.7818786557198Q1659.3711532257325 514.7818786557198 1656.8046546982441 514.5446392960359Q1654.2381561707552 514.3073999363521 1652.987257728786 513.6819507153674L1652.987257728786 513.6819507153674Q1653.3107659465368 509.7998521023593 1653.1597954449198 504.9903632651326Q1652.987257728786 500.1808744279059 1652.2108380061845 496.77325453426545L1652.2108380061845 496.77325453426545Q1658.594733503131 493.4950379277253 1665.6472126500962 491.6402574792881Q1672.7212590115773 489.7854770308509 1678.6091085746398 489.7854770308509L1678.6091085746398 489.7854770308509Q1684.3675548506017 489.7854770308509 1688.4868928232936 491.40301811960427Q1692.5846635814687 493.0421264228744 1695.0864604654075 495.6733265939132L1695.0864604654075 495.6733265939132Q1699.1195295800326 499.55542520692126 1700.348860807485 505.8530518458011Q1701.599759249454 512.1291112701642 1701.599759249454 522.546075881736L1701.599759249454 522.546075881736L1701.599759249454 539.6273097789715Q1701.599759249454 543.9623198968306 1702.2899101139892 546.5288184243193Q1703.0016281930407 549.095316951808 1705.0073791430946 550.2599465357105Q1707.0346973076657 551.4245761196128 1711.2187369239077 551.7265171228468L1711.2187369239077 551.7265171228468Q1711.2187369239077 553.27935656805 1711.0677664222908 555.2204058745541Q1710.9167959206738 557.1614551810582 1710.2913466996893 558.8868323423951L1710.2913466996893 558.8868323423951Q1706.4092480866811 559.037802844012 1701.686028107521 560.3534029295315Q1696.9412409138445 561.6690030150509 1693.3610833040702 563.6963211796217ZM1672.2467802922097 554.8321960132532L1672.2467802922097 554.8321960132532Q1675.675967400367 554.8321960132532 1679.2345577956244 552.5892057035153Q1682.8147154053986 550.3462153937772 1685.2086762167532 545.5151593420338Q1687.6242042426252 540.7056705048071 1687.6242042426252 532.9414732787909L1687.6242042426252 532.9414732787909L1687.6242042426252 527.0536237157287Q1683.742105629617 527.5065352205796 1679.3855282972413 528.369223801248Q1675.0505181793824 529.2103451673997 1671.3193900679912 530.9357223287368Q1667.5882619566 532.639532275557 1665.259002788795 535.6589423078966Q1662.9297436209904 538.699919554753 1662.9297436209904 543.8113493952136L1662.9297436209904 543.8113493952136Q1662.9297436209904 549.5697956711756 1665.7334815081626 552.2009958422145Q1668.5156521808185 554.8321960132532 1672.2467802922097 554.8321960132532ZM1735.4602860406917 563.8472916812387L1735.4602860406917 563.8472916812387Q1730.4782594873313 563.8472916812387 1727.6960888146755 561.0435537940662Q1724.8923509275028 558.2613831214104 1724.8923509275028 553.9048057890346L1724.8923509275028 553.9048057890346Q1724.8923509275028 549.5697956711756 1728.0842986759762 546.4641167807691Q1731.2546792099329 543.3584378903627 1736.2367057632932 543.3584378903627L1736.2367057632932 543.3584378903627Q1741.0461946005198 543.3584378903627 1743.7636636296256 546.5288184243193Q1746.481132658731 549.7207661727925 1746.481132658731 552.977415564816L1746.481132658731 552.977415564816Q1746.481132658731 558.5633241246444 1743.1382144086406 561.2160915101999Q1739.7952961585506 563.8472916812387 1735.4602860406917 563.8472916812387ZM1787.4804074550002 600.9644678644995L1787.4804074550002 600.9644678644995Q1777.9908330676467 600.9644678644995 1772.0167146465178 598.5489398386278Q1766.0425962253885 596.1549790272727 1763.2388583382162 591.4964606916631Q1760.4566876655604 586.8379423560534 1760.4566876655604 580.0011353542557L1760.4566876655604 580.0011353542557Q1760.4566876655604 574.0917185766768 1763.627068199517 569.7567084588177Q1766.8190159479905 565.4001311264419 1772.5558950094355 562.9199014570202L1772.5558950094355 562.9199014570202L1780.3200922354517 563.5453506780048Q1776.6105313385774 566.3275213506606 1775.2086623949908 569.433200241067Q1773.8067934514047 572.5388791314735 1773.8067934514047 576.7444859622324L1773.8067934514047 576.7444859622324Q1773.8067934514047 584.6596536898655 1777.7751609224797 588.6927228044906Q1781.7219611790383 592.7257919191156 1791.1899683518745 592.7257919191156L1791.1899683518745 592.7257919191156Q1801.4559624618291 592.7257919191156 1807.279110381341 587.614362078655Q1813.1022583008535 582.4813650236777 1813.1022583008535 575.7955285234971L1813.1022583008535 575.7955285234971Q1813.1022583008535 571.7624594088718 1811.1612089943492 569.433200241067Q1809.2201596878454 567.1039410732621 1803.6989527715673 566.0255803474266Q1798.1777458552888 564.9256524070743 1787.4804074550002 564.9256524070743L1787.4804074550002 564.9256524070743Q1780.4926299515855 564.9256524070743 1776.0497837611429 564.2355015425396Q1771.628504785217 563.5453506780048 1769.0620062577286 561.9062423747347Q1766.5170749447566 560.2671340714646 1765.5034158624708 557.7869044020428Q1764.4897567801854 555.3066747326209 1764.4897567801854 551.7265171228468L1764.4897567801854 551.7265171228468Q1764.4897567801854 546.6150872823862 1767.509166812525 541.7193295870926Q1770.5501440593816 536.823571891799 1775.3596328966078 532.9414732787909L1775.3596328966078 532.9414732787909L1781.0965119580533 536.974542393416Q1777.9908330676467 539.6273097789715 1776.6752329821275 541.9565689467764Q1775.3596328966078 544.2858281145812 1775.3596328966078 545.9896380614015L1775.3596328966078 545.9896380614015Q1775.3596328966078 548.7933759485741 1776.8262034837444 550.1736776776436Q1778.3143412853974 551.5755466212298 1783.1238301226244 552.0500253405975Q1787.933318959851 552.5029368454484 1797.875804852055 552.5029368454484L1797.875804852055 552.5029368454484Q1808.27120224911 552.5029368454484 1814.4178583863727 554.2283140067854Q1820.542947309119 555.9321239536056 1823.2604163382248 559.6632520649966Q1825.9778853673301 563.3728129618711 1825.9778853673301 569.7567084588177L1825.9778853673301 569.7567084588177Q1825.9778853673301 575.0191088008953 1823.1094458366078 580.5403157171736Q1820.241006305885 586.0615226334517 1815.1080092509073 590.6337721109946Q1809.9965794104469 595.2060215885374 1802.9225330489658 598.0960283337768Q1795.8484866874842 600.9644678644995 1787.4804074550002 600.9644678644995ZM1791.1899683518745 540.7056705048071L1791.1899683518745 540.7056705048071Q1783.900249845226 540.7056705048071 1777.386951061179 537.9234998321513Q1770.8520850626155 535.1197619449788 1766.9052848060574 529.5338533851505Q1762.9369173349824 523.9479448253221 1762.9369173349824 515.5582983783213L1762.9369173349824 515.5582983783213Q1762.9369173349824 508.4195503732898 1766.0425962253885 502.5964024537776Q1769.148275115795 496.77325453426545 1775.445901754675 493.2793657825582Q1781.7219611790383 489.7854770308509 1790.8880273486407 489.7854770308509L1790.8880273486407 489.7854770308509Q1798.6522245746569 489.7854770308509 1804.0008937748012 492.3304083438229Q1809.3711301894623 494.89690687131156 1812.7787500831028 498.8652743423865Q1816.20793719126 502.8120745989447 1817.760776636463 507.08238307325365Q1819.3136160816666 511.3526915475626 1819.3136160816666 514.6309081541027L1819.3136160816666 514.6309081541027Q1819.3136160816666 521.7696561591342 1816.1216683331932 527.7437745802634Q1812.9297205847197 533.7178930013926 1806.653661160357 537.2117817530998Q1800.3560345214769 540.7056705048071 1791.1899683518745 540.7056705048071ZM1793.0663160148283 533.5669224997755L1793.0663160148283 533.5669224997755Q1798.1777458552888 533.5669224997755 1801.4559624618291 529.2966140254666Q1804.7126118538526 525.0263055511577 1804.7126118538526 516.9601673219076L1804.7126118538526 516.9601673219076Q1804.7126118538526 508.7214913765237 1800.6795427392276 502.7473729553946Q1796.6249064100857 496.77325453426545 1789.3351879034371 496.77325453426545L1789.3351879034371 496.77325453426545Q1783.1238301226244 496.77325453426545 1780.1691217338348 501.97095323279297Q1777.2144133450452 507.1686519313205 1777.2144133450452 513.5309802137505L1777.2144133450452 513.5309802137505Q1777.2144133450452 523.1715251027206 1781.420020175804 528.369223801248Q1785.604059792046 533.5669224997755 1793.0663160148283 533.5669224997755ZM1827.2287838092993 500.80632364889055L1827.2287838092993 500.80632364889055Q1824.7485541398778 500.1808744279059 1821.2546653881705 499.55542520692126Q1817.760776636463 498.92997598593666 1814.4178583863727 498.4770644810857Q1811.0749401362827 498.002585761718 1808.7456809684777 497.8516152601011L1808.7456809684777 497.8516152601011L1797.875804852055 491.16577875992044L1826.1288558689475 491.16577875992044Q1826.7543050899321 493.19309692449133 1826.991544449616 495.75959545198003Q1827.2287838092993 498.32609397946874 1827.2287838092993 500.80632364889055ZM1839.177020651558 562.7689309554032L1839.177020651558 562.7689309554032Q1839.177020651558 561.2160915101999 1839.327991153175 559.4260127053128Q1839.5005288693087 557.6359339004258 1839.9534403741595 556.0830944552225L1839.9534403741595 556.0830944552225Q1846.1647981549727 556.0830944552225 1848.4293556792272 553.2146549244999Q1850.6723459889654 550.3462153937772 1850.6723459889654 542.582018167761L1850.6723459889654 542.582018167761L1850.6723459889654 511.82717026693024Q1850.6723459889654 508.0960421555391 1849.9821951244303 505.7020813441841Q1849.2704770453788 503.2865533183124 1846.7902473759573 502.03565487634313Q1844.3100177065353 500.80632364889055 1839.026050149941 500.80632364889055L1839.026050149941 500.80632364889055Q1839.026050149941 499.1025137020703 1839.327991153175 497.7006447584841Q1839.6514993709256 496.2987758148978 1840.4279190935272 495.04787737292855L1840.4279190935272 495.04787737292855Q1842.7571782613318 495.04787737292855 1847.027486735641 494.2714576503269Q1851.29779520995 493.4950379277253 1855.330864324575 492.26570670027274Q1859.3639334392 491.01480825830345 1861.2402811021539 489.7854770308509L1861.2402811021539 489.7854770308509Q1862.6205828312236 490.23838853570186 1863.634241913509 491.6402574792881Q1864.6479009957943 493.0421264228744 1864.6479009957943 495.99683481166386L1864.6479009957943 495.99683481166386L1864.6479009957943 542.582018167761Q1864.6479009957943 550.3462153937772 1866.7399208039155 553.2146549244999Q1868.8319406120363 556.0830944552225 1873.8139671653967 556.0830944552225L1873.8139671653967 556.0830944552225Q1874.266878670248 557.6359339004258 1874.4394163863817 559.6632520649966Q1874.5903868879982 561.6690030150509 1874.5903868879982 562.7689309554032L1874.5903868879982 562.7689309554032Q1871.9376195024429 562.5963932392694 1869.00447832817 562.5316915957194Q1866.049769939381 562.4454227376525 1863.0087926925244 562.3807210941023Q1859.9893826601847 562.2944522360356 1857.034674271395 562.2944522360356L1857.034674271395 562.2944522360356Q1854.0799658826058 562.2944522360356 1850.9095853486492 562.3807210941023Q1847.7176376001757 562.4454227376525 1844.762929211386 562.5316915957194Q1841.8297880371133 562.5963932392694 1839.177020651558 562.7689309554032ZM1856.4092250504104 472.2297644142476L1856.4092250504104 472.2297644142476Q1852.5271264374023 472.2297644142476 1849.8959262663634 469.5985642432088Q1847.264726095325 466.94579685765325 1847.264726095325 463.21466874626213L1847.264726095325 463.21466874626213Q1847.264726095325 459.0306291300201 1850.0468967679808 456.3994289589813Q1852.850634655153 453.74666157342574 1856.4092250504104 453.74666157342574L1856.4092250504104 453.74666157342574Q1860.6148318811693 453.74666157342574 1863.1813304086577 456.3994289589813Q1865.7262617216297 459.0306291300201 1865.7262617216297 463.21466874626213L1865.7262617216297 463.21466874626213Q1865.7262617216297 466.79482635603625 1863.0087926925244 469.5122953851419Q1860.2913236634186 472.2297644142476 1856.4092250504104 472.2297644142476ZM1912.4839827938608 563.6963211796217L1912.4839827938608 563.6963211796217Q1903.3179166242585 563.6963211796217 1898.8966376483322 558.9515339859452Q1894.45379145789 554.2283140067854 1894.45379145789 543.6603788935967L1894.45379145789 543.6603788935967L1894.45379145789 501.5827433714922Q1892.124532290085 500.80632364889055 1889.644302620663 500.26714328597274Q1887.1640729512415 499.70639570853825 1883.2819743382333 499.55542520692126L1883.2819743382333 499.55542520692126Q1883.2819743382333 497.5496742568671 1883.5839153414672 496.06153645521397Q1883.907423559218 494.5949658680776 1884.6838432818195 492.7186182051237L1884.6838432818195 492.7186182051237L1894.45379145789 492.7186182051237L1894.45379145789 472.2297644142476Q1897.5594703482966 471.45334469164595 1900.6004475951527 469.7495347448258Q1903.6198576274924 468.04572479800555 1905.9491167952974 466.01840663343467L1905.9491167952974 466.01840663343467Q1907.5019562405005 466.64385585441926 1907.9764349598681 467.87318708187183Q1908.429346464719 469.12408552384113 1908.429346464719 474.0845448626848L1908.429346464719 474.0845448626848L1908.429346464719 492.7186182051237L1928.616259252361 492.7186182051237Q1928.616259252361 494.2714576503269 1928.3143182491272 496.06153645521397Q1928.0123772458933 497.8516152601011 1927.2359575232917 499.55542520692126L1927.2359575232917 499.55542520692126Q1921.6284817489468 499.70639570853825 1916.9699634133367 500.26714328597274Q1912.311445077727 500.80632364889055 1908.429346464719 501.5827433714922L1908.429346464719 501.5827433714922L1908.429346464719 540.4037295015731Q1908.429346464719 545.5151593420338 1909.5292744050712 548.8580775921241Q1910.607635130907 552.2009958422145 1912.6349532954778 553.7538352874177Q1914.640704245532 555.3066747326209 1917.4444421327044 555.3066747326209L1917.4444421327044 555.3066747326209Q1920.7010915247279 555.3066747326209 1923.1166195505994 554.3792845084023Q1925.5105803619545 553.4518942841837 1927.6888690281426 551.5755466212298L1927.6888690281426 551.5755466212298Q1929.7161871927133 553.9048057890346 1930.0181281959472 556.7085436762072L1930.0181281959472 556.7085436762072Q1927.5378985265256 559.6632520649966 1922.4911703296152 561.6690030150509Q1917.4444421327044 563.6963211796217 1912.4839827938608 563.6963211796217ZM2011.6931695707344 515.8602393815553L2011.6931695707344 542.582018167761Q2011.6931695707344 550.6481563970112 2013.957727094989 553.3656254261168Q2016.2007174047271 556.0830944552225 2020.8592357403368 556.0830944552225L2020.8592357403368 556.0830944552225Q2021.3337144597044 557.4849633988088 2021.4846849613214 559.037802844012Q2021.6356554629388 560.5906422892153 2021.6356554629388 562.7689309554032L2021.6356554629388 562.7689309554032Q2018.2280355692983 562.4454227376525 2013.8714582369225 562.3807210941023Q2009.5364481190632 562.2944522360356 2004.7053920673197 562.2944522360356L2004.7053920673197 562.2944522360356Q2001.5997131769132 562.2944522360356 1998.1920932832732 562.3807210941023Q1994.7844733896322 562.4454227376525 1991.7434961427762 562.5316915957194Q1988.7240861104365 562.5963932392694 1986.2438564410145 562.7689309554032L1986.2438564410145 562.7689309554032Q1986.2438564410145 560.5906422892153 1986.3948269426319 558.9515339859452Q1986.5457974442488 557.3339928971918 1987.020276163616 556.0830944552225L1987.020276163616 556.0830944552225Q1992.6061847234446 556.0830944552225 1995.1726832509335 553.2146549244999Q1997.717614563905 550.3462153937772 1997.717614563905 542.582018167761L1997.717614563905 542.582018167761L1997.717614563905 518.9659182719618Q1997.717614563905 507.9450716539221 1993.6845454492804 503.9767041828472Q1989.651476334655 500.02990392628897 1983.2891480522253 500.02990392628897L1983.2891480522253 500.02990392628897Q1979.2560789376003 500.02990392628897 1975.2014426084584 502.5964024537776Q1971.1683734938333 505.1413337667496 1968.4509044647275 510.81351118464477Q1965.7334354356217 516.48568860254 1965.7334354356217 525.9536957753763L1965.7334354356217 525.9536957753763L1965.7334354356217 542.582018167761Q1965.7334354356217 550.3462153937772 1968.0626946034267 553.2146549244999Q1970.3919537712318 556.0830944552225 1976.4523410504275 556.0830944552225L1976.4523410504275 556.0830944552225Q1976.9268197697952 557.4849633988088 1977.0777902714121 559.037802844012Q1977.228760773029 560.5906422892153 1977.228760773029 562.7689309554032L1977.228760773029 562.7689309554032Q1975.0504721068414 562.5963932392694 1971.9447932164348 562.5316915957194Q1968.8391143260283 562.4454227376525 1965.4314944323878 562.3807210941023Q1962.002307324231 562.2944522360356 1958.745657932207 562.2944522360356L1958.745657932207 562.2944522360356Q1955.6399790418009 562.2944522360356 1952.2323591481604 562.3807210941023Q1948.8031720400036 562.4454227376525 1945.6974931495965 562.5316915957194Q1942.5918142591904 562.5963932392694 1940.2625550913854 562.7689309554032L1940.2625550913854 562.7689309554032Q1940.2625550913854 560.5906422892153 1940.4350928075191 558.9515339859452Q1940.586063309136 557.3339928971918 1941.0389748139874 556.0830944552225L1941.0389748139874 556.0830944552225Q1947.0993620931831 556.0830944552225 1949.4286212609877 553.2146549244999Q1951.7578804287928 550.3462153937772 1951.7578804287928 542.582018167761L1951.7578804287928 542.582018167761L1951.7578804287928 511.82717026693024L1965.7334354356217 496.6007168181318Q1965.7334354356217 498.4770644810857 1965.5824649340052 500.80632364889055Q1965.4314944323878 503.13558281669543 1964.6550747097863 505.76678298773425L1964.6550747097863 505.76678298773425Q1965.107986214637 504.9903632651326 1965.5824649340052 503.9767041828472Q1966.0569436533729 502.98461231507844 1966.9843338775913 501.7337138731092L1966.9843338775913 501.7337138731092Q1969.6155340486298 498.153556263335 1975.4386819681422 494.35772650839374Q1981.2618298876541 490.5618967534525 1989.500505833038 490.5618967534525L1989.500505833038 490.5618967534525Q1995.3883553961005 490.5618967534525 2000.4350835930109 492.9558575648075Q2005.4818117899217 495.3713855906792 2008.5874906803278 500.87102529244066Q2011.6931695707344 506.3922322087189 2011.6931695707344 515.8602393815553L2011.6931695707344 515.8602393815553ZM1951.7578804287928 478.7430631982945L1951.7578804287928 473.00618413684924Q1951.7578804287928 469.27505602545807 1951.0677295642581 466.8810952141031Q1950.3560114852062 464.4655671882314 1947.8757818157846 463.21466874626213Q1945.3955521463627 461.98533751880956 1940.1115845897684 461.98533751880956L1940.1115845897684 461.98533751880956Q1940.1115845897684 460.2815275719894 1940.4350928075191 458.8796586284031Q1940.737033810753 457.4777896848168 1941.513453533355 456.22689124284756L1941.513453533355 456.22689124284756Q1943.8427127011596 456.22689124284756 1948.1130211754685 455.45047152024597Q1952.3833296497774 454.6740517976443 1956.4163987644024 453.44472057019175Q1960.4494678790275 452.19382212822245 1962.3258155419817 450.9644909007699L1962.3258155419817 450.9644909007699Q1963.7276844855678 451.41740240562086 1964.7197763533363 452.8192713492071Q1965.7334354356217 454.2211402927934 1965.7334354356217 457.17584868158286L1965.7334354356217 457.17584868158286L1965.7334354356217 478.7430631982945L1951.7578804287928 478.7430631982945ZM1951.7578804287928 514.1564294347351L1951.7578804287928 473.00618413684924L1965.7334354356217 473.00618413684924L1965.7334354356217 496.6007168181318L1951.7578804287928 514.1564294347351ZM2062.1604515398403 562.9199014570202L2062.1604515398403 562.9199014570202Q2051.7650541427847 562.9199014570202 2045.855637365206 556.8595141778242Q2039.9677878021434 550.7991268986282 2039.9677878021434 535.2707324465957L2039.9677878021434 535.2707324465957L2039.9677878021434 511.82717026693024Q2039.9677878021434 506.3922322087189 2038.4149483569404 503.6747631796132Q2036.8621089117369 500.95729415050755 2029.7233609067052 500.80632364889055L2029.7233609067052 500.80632364889055Q2029.7233609067052 499.1025137020703 2029.9390330518727 497.7653464020342Q2030.176272411556 496.4497463165148 2030.801721632541 495.04787737292855L2030.801721632541 495.04787737292855Q2035.6112104697677 494.74593636969456 2041.2833878876631 493.19309692449133Q2046.9555653055581 491.6402574792881 2050.5141557008155 489.7854770308509L2050.5141557008155 489.7854770308509Q2051.9160246444017 490.23838853570186 2052.9296837266875 491.7265263373549Q2053.9433428089733 493.19309692449133 2053.9433428089733 496.6007168181318L2053.9433428089733 496.6007168181318L2053.9433428089733 531.8631125529554Q2053.9433428089733 542.2585099500104 2056.811782339695 547.8444185098388Q2059.680221870418 553.4518942841837 2066.8189698754495 553.4518942841837L2066.8189698754495 553.4518942841837Q2074.5831671014657 553.4518942841837 2079.80243301451 546.9170282856201Q2085.0001317130373 540.4037295015731 2085.0001317130373 526.8810859995949L2085.0001317130373 526.8810859995949L2085.0001317130373 511.0507505443286Q2085.0001317130373 505.61581248611725 2083.059082406534 502.8983434570116Q2081.1180331000296 500.1808744279059 2073.3538358740134 500.02990392628897L2073.3538358740134 500.02990392628897Q2073.3538358740134 498.32609397946874 2073.5048063756303 496.9889266794326Q2073.6557768772473 495.6733265939132 2074.432196599849 494.2714576503269L2074.432196599849 494.2714576503269Q2080.492583879045 493.969516647093 2086.315731798557 492.65391656157357Q2092.138879718069 491.33831647605416 2095.54649961171 489.7854770308509L2095.54649961171 489.7854770308509Q2096.948368555296 490.23838853570186 2097.9620276375817 491.7265263373549Q2098.9756867198666 493.19309692449133 2098.9756867198666 496.6007168181318L2098.9756867198666 496.6007168181318L2098.9756867198666 541.6330607290257L2086.854912161475 547.3915070049877Q2086.0784924388736 549.3972579550419 2084.6766234952875 551.338307261546Q2083.2963217662173 553.27935656805 2081.5709446048804 555.004733729387L2081.5709446048804 555.004733729387Q2077.537875490255 559.037802844012 2073.0303276562627 560.9788521505161Q2068.5443470367863 562.9199014570202 2062.1604515398403 562.9199014570202ZM2089.9605910518812 563.6963211796217L2089.9605910518812 563.6963211796217Q2088.407751606678 562.9199014570202 2087.2431220227754 561.431763655367Q2086.0784924388736 559.9651930682306 2086.0784924388736 554.6812255116363L2086.0784924388736 554.6812255116363Q2086.0784924388736 552.977415564816 2086.315731798557 549.8717366744096Q2086.5529711582412 546.7660577840031 2087.6313318840766 541.1801492241748L2087.6313318840766 541.1801492241748L2098.9756867198666 541.1801492241748Q2098.9756867198666 544.7387396194322 2099.6011359408512 547.1542676453039Q2100.205017947319 549.5697956711756 2102.318604969957 550.6481563970112Q2104.4106247780783 551.7265171228468 2108.59466439432 551.7265171228468L2108.59466439432 551.7265171228468Q2108.59466439432 553.27935656805 2108.443693892703 555.2204058745541Q2108.292723391086 557.1614551810582 2107.6672741701013 558.8868323423951L2107.6672741701013 558.8868323423951Q2103.7851755570937 559.037802844012 2098.652178502116 560.3534029295315Q2093.540748661655 561.6690030150509 2089.9605910518812 563.6963211796217ZM2141.9807124661893 553.9048057890346L2139.8024238000016 548.944346450191Q2142.9081026904087 552.2009958422145 2146.574529158249 554.3792845084023Q2150.219388411574 556.5575731745903 2155.654326469785 556.5575731745903L2155.654326469785 556.5575731745903Q2158.9109758618088 556.5575731745903 2162.70680561675 555.2204058745541Q2166.524202586208 553.9048057890346 2170.082792981465 550.6481563970112Q2173.6629505912397 547.3915070049877 2175.905940900977 541.4820902274088Q2178.170498425232 535.5942406643464 2178.170498425232 526.277203993127L2178.170498425232 526.277203993127Q2178.170498425232 516.3347181009229 2175.2157900364427 510.5115701814108Q2172.2610816476526 504.68842226189867 2168.228012533028 502.12192373440996Q2164.1949434184025 499.55542520692126 2160.7657563102457 499.55542520692126L2160.7657563102457 499.55542520692126Q2156.2797756907694 499.55542520692126 2151.923198358394 502.42386473764395Q2147.566621026018 505.3138714828833 2144.7844503533624 511.82717026693024Q2141.9807124661893 518.3404690509772 2141.9807124661893 529.2103451673997L2141.9807124661893 529.2103451673997L2141.9807124661893 553.9048057890346ZM2154.8779067471833 563.6963211796217L2154.8779067471833 563.6963211796217Q2147.8901292437686 563.6963211796217 2142.131682967807 562.2944522360356Q2136.3948039063616 560.8925832924492 2132.0382265739854 558.4986224810942Q2127.703216456127 556.0830944552225 2124.59753756572 553.128386066433L2124.59753756572 553.128386066433Q2126.301347512541 550.9500974002451 2127.164036093209 546.7660577840031Q2128.005157459361 542.582018167761 2128.005157459361 533.4159519981586L2128.005157459361 533.4159519981586L2128.005157459361 473.00618413684924Q2128.005157459361 469.27505602545807 2127.3150065948257 466.8810952141031Q2126.6032885157747 464.4655671882314 2124.1230588463523 463.21466874626213Q2121.6428291769307 461.98533751880956 2116.358861620336 461.98533751880956L2116.358861620336 461.98533751880956Q2116.358861620336 460.2815275719894 2116.6823698380867 458.8796586284031Q2116.9843108413206 457.4777896848168 2117.760730563923 456.22689124284756L2117.760730563923 456.22689124284756Q2120.0899897317277 456.22689124284756 2124.3602982060365 455.45047152024597Q2128.6306066803454 454.6740517976443 2132.663675794971 453.44472057019175Q2136.6967449095955 452.19382212822245 2138.5730925725493 450.9644909007699L2138.5730925725493 450.9644909007699Q2139.9749615161354 451.41740240562086 2140.9670533839044 452.8192713492071Q2141.9807124661893 454.2211402927934 2141.9807124661893 457.17584868158286L2141.9807124661893 457.17584868158286L2141.9807124661893 497.7006447584841Q2141.9807124661893 500.4828154311399 2141.6787714629554 502.42386473764395Q2141.3552632452056 504.364914044148 2141.053322241971 506.0902912054849L2141.053322241971 506.0902912054849L2140.427873020986 519.8933084961805L2137.473164632197 512.7545604911488Q2139.5004827967678 507.79410115230513 2140.9670533839044 505.1413337667496Q2142.455191185558 502.5101335957108 2143.2316109081594 501.2592351537415L2143.2316109081594 501.2592351537415Q2144.6334798517455 498.92997598593666 2147.652889884085 496.21250695683096Q2150.672299916425 493.4950379277253 2155.0288772488 491.6402574792881Q2159.3854545811764 489.7854770308509 2164.4968844216373 489.7854770308509L2164.4968844216373 489.7854770308509Q2173.6629505912397 489.7854770308509 2180.111547731736 493.43033628417516Q2186.5601448722327 497.07519553749944 2190.05403362394 504.68842226189867Q2193.5479223756474 512.3016489862979 2193.5479223756474 524.2498858285561L2193.5479223756474 524.2498858285561Q2193.5479223756474 535.1197619449788 2188.7168663239045 544.0485887548974Q2183.9073774866774 552.977415564816 2175.2157900364427 558.3260847649606Q2166.524202586208 563.6963211796217 2154.8779067471833 563.6963211796217ZM2217.7679042779146 563.8472916812387L2217.7679042779146 563.8472916812387Q2212.7858777245547 563.8472916812387 2210.0037070518983 561.0435537940662Q2207.199969164726 558.2613831214104 2207.199969164726 553.9048057890346L2207.199969164726 553.9048057890346Q2207.199969164726 549.5697956711756 2210.3919169131996 546.4641167807691Q2213.562297447156 543.3584378903627 2218.544324000516 543.3584378903627L2218.544324000516 543.3584378903627Q2223.353812837743 543.3584378903627 2226.071281866849 546.5288184243193Q2228.7887508959548 549.7207661727925 2228.7887508959548 552.977415564816L2228.7887508959548 552.977415564816Q2228.7887508959548 558.5633241246444 2225.4458326458644 561.2160915101999Q2222.102914395774 563.8472916812387 2217.7679042779146 563.8472916812387ZM2242.1388566817986 562.7689309554032L2242.1388566817986 562.7689309554032Q2242.1388566817986 561.2160915101999 2242.2898271834156 559.4260127053128Q2242.4623648995494 557.6359339004258 2242.9152764044 556.0830944552225L2242.9152764044 556.0830944552225Q2249.1266341852133 556.0830944552225 2251.3911917094683 553.2146549244999Q2253.6341820192065 550.3462153937772 2253.6341820192065 542.582018167761L2253.6341820192065 542.582018167761L2253.6341820192065 511.82717026693024Q2253.6341820192065 508.0960421555391 2252.9440311546714 505.7020813441841Q2252.2323130756195 503.2865533183124 2249.752083406198 502.03565487634313Q2247.2718537367764 500.80632364889055 2241.9878861801817 500.80632364889055L2241.9878861801817 500.80632364889055Q2241.9878861801817 499.1025137020703 2242.2898271834156 497.7006447584841Q2242.6133354011663 496.2987758148978 2243.389755123768 495.04787737292855L2243.389755123768 495.04787737292855Q2245.7190142915733 495.04787737292855 2249.9893227658813 494.2714576503269Q2254.259631240191 493.4950379277253 2258.2927003548157 492.26570670027274Q2262.325769469441 491.01480825830345 2264.202117132395 489.7854770308509L2264.202117132395 489.7854770308509Q2265.5824188614642 490.23838853570186 2266.59607794375 491.6402574792881Q2267.609737026035 493.0421264228744 2267.609737026035 495.99683481166386L2267.609737026035 495.99683481166386L2267.609737026035 542.582018167761Q2267.609737026035 550.3462153937772 2269.701756834156 553.2146549244999Q2271.7937766422774 556.0830944552225 2276.7758031956373 556.0830944552225L2276.7758031956373 556.0830944552225Q2277.228714700488 557.6359339004258 2277.401252416622 559.6632520649966Q2277.5522229182397 561.6690030150509 2277.5522229182397 562.7689309554032L2277.5522229182397 562.7689309554032Q2274.8994555326835 562.5963932392694 2271.966314358411 562.5316915957194Q2269.011605969621 562.4454227376525 2265.9706287227655 562.3807210941023Q2262.951218690426 562.2944522360356 2259.9965103016357 562.2944522360356L2259.9965103016357 562.2944522360356Q2257.0418019128465 562.2944522360356 2253.87142137889 562.3807210941023Q2250.6794736304164 562.4454227376525 2247.724765241627 562.5316915957194Q2244.791624067355 562.5963932392694 2242.1388566817986 562.7689309554032ZM2259.371061080651 472.2297644142476L2259.371061080651 472.2297644142476Q2255.4889624676434 472.2297644142476 2252.857762296604 469.5985642432088Q2250.2265621255656 466.94579685765325 2250.2265621255656 463.21466874626213L2250.2265621255656 463.21466874626213Q2250.2265621255656 459.0306291300201 2253.008732798222 456.3994289589813Q2255.812470685394 453.74666157342574 2259.371061080651 453.74666157342574L2259.371061080651 453.74666157342574Q2263.5766679114104 453.74666157342574 2266.1431664388992 456.3994289589813Q2268.6880977518713 459.0306291300201 2268.6880977518713 463.21466874626213L2268.6880977518713 463.21466874626213Q2268.6880977518713 466.79482635603625 2265.9706287227655 469.5122953851419Q2263.2531596936597 472.2297644142476 2259.371061080651 472.2297644142476ZM2324.43934727757 563.6963211796217L2324.43934727757 563.6963211796217Q2313.8929793788984 563.6963211796217 2305.9562444367484 559.1025044875622Q2298.0410767091153 554.5302550100193 2293.706066591256 546.2268774210853Q2289.3494892588806 537.9234998321513 2289.3494892588806 526.730115497978L2289.3494892588806 526.730115497978Q2289.3494892588806 516.183747599306 2293.8570370928737 507.79410115230513Q2298.364584926866 499.4044547053043 2306.279752654499 494.5949658680776Q2314.1949203821323 489.7854770308509 2324.43934727757 489.7854770308509L2324.43934727757 489.7854770308509Q2335.4601938956102 489.7854770308509 2343.310659979693 494.4439953664606Q2351.1611260637765 499.1025137020703 2355.345165680018 507.4058912910043Q2359.5292052962604 515.7092688799383 2359.5292052962604 526.730115497978L2359.5292052962604 526.730115497978Q2359.5292052962604 537.2980506111667 2355.1079263203346 545.6876970581675Q2350.686647344409 554.0557762906517 2342.8361812603252 558.8868323423951Q2335.0072823907594 563.6963211796217 2324.43934727757 563.6963211796217ZM2325.69024571954 556.2340649568396L2325.69024571954 556.2340649568396Q2335.0072823907594 556.2340649568396 2339.5148302247517 548.5561365888902Q2344.000810844228 540.8566410064241 2344.000810844228 528.6064631609319L2344.000810844228 528.6064631609319Q2344.000810844228 518.9659182719618 2341.1323713135052 511.91343912499707Q2338.2639317827825 504.83939276351566 2333.4544429455564 501.0435630085744Q2328.6449541083293 497.22616603911644 2322.886507832367 497.22616603911644L2322.886507832367 497.22616603911644Q2313.8929793788984 497.22616603911644 2309.4501331884558 504.53745176028167Q2305.02885421253 511.82717026693024 2305.02885421253 523.4734661059545L2305.02885421253 523.4734661059545Q2305.02885421253 533.8688635030096 2307.595352740019 541.244850867725Q2310.1618512675077 548.6208382324403 2314.820369603117 552.4382352018984Q2319.478887938727 556.2340649568396 2325.69024571954 556.2340649568396Z " fill="#8aaae5" transform="matrix(0.3708367108403352,0,0,0.37083671084033526,0,104.9530696988272)"/></g></svg>